<svg xmlns="http://www.w3.org/2000/svg" viewBox="0 0 381.14 381.14">
	<path fill="#D5DB3E" d="M190.57,323.54c-4.16,0-8.31-1.07-12.02-3.21l-94.35-54.47c-7.41-4.28-12.02-12.26-12.02-20.82v-108.94c0-8.56,4.61-16.54,12.02-20.82l94.35-54.47c7.41-4.28,16.62-4.28,24.04,0l94.35,54.47c7.41,4.28,12.02,12.26,12.02,20.82v108.94c0,8.56-4.61,16.54-12.02,20.82l-94.35,54.47c-3.71,2.14-7.86,3.21-12.02,3.21ZM190.57,73.55c-1.4,0-2.79.36-4.04,1.08l-94.35,54.47c-2.49,1.44-4.04,4.12-4.04,7v108.94c0,2.88,1.55,5.56,4.04,7l94.35,54.47c2.49,1.44,5.58,1.44,8.08,0l94.35-54.47c2.49-1.44,4.04-4.12,4.04-7v-108.94c0-2.88-1.55-5.56-4.04-7l-94.35-54.47c-1.25-.72-2.64-1.08-4.04-1.08Z"></path>
</svg>