<svg xmlns="http://www.w3.org/2000/svg" width="45.489" height="19.355"><defs><clipPath id="a"><path fill="none" d="M0 0h45.489v19.355H0z" data-name="Rectangle 159"/></clipPath></defs><g data-name="Group 145"><path fill="#c00418" d="m0 4.066 10.54 10.7v-10.7Z" data-name="Path 53"/><g data-name="Group 144"><g clip-path="url(#a)" data-name="Group 143"><path fill="#c00418" d="M39.42 4.067a5.786 5.786 0 0 0-5.786 5.786v8.088a1.415 1.415 0 1 0 2.829 0V14.8a5.7 5.7 0 0 0 2.989.846A5.8 5.8 0 0 0 39.93 4.06h-.482m0 8.747a2.989 2.989 0 1 1 2.989-2.989 2.99 2.99 0 0 1-2.989 2.989M20.52 4.067a5.73 5.73 0 0 0-2.989.846V1.424a1.415 1.415 0 0 0-2.829 0v8.438a5.788 5.788 0 1 0 5.791-5.809m0 8.757a2.989 2.989 0 1 1 2.989-2.989 2.99 2.99 0 0 1-2.989 2.989m10.858.15c-.2-.1-.778-.387-.778-2.638V5.49a1.415 1.415 0 1 0-2.82-.237 2 2 0 0 0 0 .237v4.84c0 1.715.241 4.112 2.32 5.172a1.426 1.426 0 0 0 1.9-.637 1.406 1.406 0 0 0-.619-1.888h-.009M29.163 3.13a1.565 1.565 0 1 0-1.56-1.565v.009a1.555 1.555 0 0 0 1.555 1.556h.009" data-name="Path 54"/></g></g></g></svg>